<?xml version="1.0" encoding="UTF-8" standalone="no"?>
<!DOCTYPE svg PUBLIC "-//W3C//DTD SVG 20010904//EN"
              "http://www.w3.org/TR/2001/REC-SVG-20010904/DTD/svg10.dtd">

<svg xmlns="http://www.w3.org/2000/svg"
     width="5.55556in" height="5.55556in"
     viewBox="0 0 500 500">
  <path id="Selection #1"
        fill="none" stroke="black" stroke-width="1"
        d="M 216.00,0.00
           C 216.00,0.00 216.00,199.00 216.00,199.00
             216.00,199.00 151.00,137.01 151.00,137.01
             151.00,137.01 135.00,122.00 135.00,122.00
             133.16,120.19 129.72,116.37 127.00,116.34
             123.93,116.29 119.29,121.76 117.00,123.83
             117.00,123.83 94.00,146.00 94.00,146.00
             94.00,146.00 106.00,158.00 106.00,158.00
             106.00,158.00 139.00,189.09 139.00,189.09
             139.00,189.09 177.00,225.04 177.00,225.04
             177.00,225.04 203.00,249.00 203.00,249.00
             203.00,249.00 147.00,302.09 147.00,302.09
             147.00,302.09 93.00,353.00 93.00,353.00
             98.65,360.89 106.97,367.25 114.00,373.96
             115.92,375.80 122.85,382.12 125.00,382.84
             128.31,383.94 130.83,381.05 133.00,378.98
             133.00,378.98 149.00,364.00 149.00,364.00
             149.00,364.00 184.00,330.99 184.00,330.99
             184.00,330.99 216.00,301.00 216.00,301.00
             216.00,301.00 216.00,500.00 216.00,500.00
             221.63,497.34 225.59,492.32 230.00,488.01
             230.00,488.01 240.00,478.96 240.00,478.96
             240.00,478.96 251.00,468.17 251.00,468.17
             251.00,468.17 285.00,436.09 285.00,436.09
             285.00,436.09 337.00,387.01 337.00,387.01
             337.00,387.01 365.00,360.96 365.00,360.96
             367.23,358.83 373.80,353.04 373.80,350.00
             373.80,347.32 369.80,343.81 368.00,342.00
             368.00,342.00 350.00,325.00 350.00,325.00
             350.00,325.00 301.00,278.99 301.00,278.99
             301.00,278.99 283.00,261.99 283.00,261.99
             278.04,257.15 274.19,252.32 268.00,249.00
             268.00,249.00 297.00,221.91 297.00,221.91
             297.00,221.91 340.00,181.09 340.00,181.09
             340.00,181.09 375.00,148.00 375.00,148.00
             375.00,148.00 343.00,116.96 343.00,116.96
             343.00,116.96 271.00,49.96 271.00,49.96
             271.00,49.96 239.00,20.00 239.00,20.00
             239.00,20.00 216.00,0.00 216.00,0.00 Z
           M 259.00,97.00
           C 259.00,97.00 279.00,116.96 279.00,116.96
             279.00,116.96 289.00,126.01 289.00,126.01
             289.00,126.01 311.00,147.00 311.00,147.00
             307.52,154.35 299.86,159.63 294.00,165.09
             286.35,172.22 265.23,193.78 258.00,198.00
             258.00,198.00 258.00,128.00 258.00,128.00
             258.00,128.00 259.00,97.00 259.00,97.00 Z
           M 325.00,248.00
           C 325.00,248.00 302.00,248.00 302.00,248.00
             303.38,254.77 308.26,260.33 312.00,266.00
             312.00,266.00 334.00,299.00 334.00,299.00
             334.00,299.00 336.00,299.00 336.00,299.00
             336.00,299.00 358.58,267.00 358.58,267.00
             358.58,267.00 371.00,248.00 371.00,248.00
             371.00,248.00 348.00,248.00 348.00,248.00
             349.59,240.13 352.14,232.28 357.33,226.00
             361.36,221.11 366.31,216.66 372.00,213.81
             394.02,202.76 418.35,212.36 429.24,234.00
             432.52,240.52 434.25,246.64 433.96,254.00
             433.46,266.83 426.86,278.52 417.00,286.53
             410.18,292.08 403.47,294.29 395.00,296.00
             395.00,296.00 395.00,320.00 395.00,320.00
             409.37,318.83 420.59,314.93 432.00,305.99
             447.29,294.00 456.91,274.46 457.00,255.00
             457.13,227.61 444.66,203.30 419.00,191.32
             388.86,177.26 353.66,187.40 335.36,215.00
             328.92,224.70 325.03,236.35 325.00,248.00 Z
           M 259.00,297.00
           C 259.00,297.00 296.00,333.00 296.00,333.00
             298.02,335.02 309.28,345.37 309.70,347.18
             310.62,351.09 300.86,359.10 298.00,361.58
             298.00,361.58 284.00,374.96 284.00,374.96
             284.00,374.96 274.00,384.01 274.00,384.01
             268.54,389.34 264.70,394.09 258.00,398.00
             258.00,398.00 258.00,328.00 258.00,328.00
             258.00,328.00 259.00,297.00 259.00,297.00 Z" />
</svg>
